# xmcd
#
# Track frame offsets: 
#        150
#        18066
#        38636
#        61051
#        80683
#        101407
#        115840
#        131474
#        147246
#        158463
#        176249
#
# Disc length: 2592 seconds
#
# Revision: 0
# Processed by: cddbd v1.5.2PL0 Copyright (c) Steve Scherf et al.
# Submitted via: ExactAudioCopy v0.95b4
#
DISCID=800a1e0b
DTITLE=Jonah Smith - Lights On
DYEAR=2008
DGENRE=Pop
TTITLE0=Love Gets Lost
TTITLE1=Cabin Fever
TTITLE2=Misguided
TTITLE3=Lights On
TTITLE4=World Without Love
TTITLE5=Mrs. Cooper
TTITLE6=Open Up The Door
TTITLE7=Can't Find My Way Home
TTITLE8=Built For Two
TTITLE9=Gold And Green
TTITLE10=I Know What You're Talking About
EXTD=
EXTT0=
EXTT1=
EXTT2=
EXTT3=
EXTT4=
EXTT5=
EXTT6=
EXTT7=
EXTT8=
EXTT9=
EXTT10=
PLAYORDER=
